<?xml version="1.0" encoding="utf-8"?>
<!-- Generator: Adobe Illustrator 24.2.1, SVG Export Plug-In . SVG Version: 6.00 Build 0)  -->
<svg version="1.1" id="Layer_1" xmlns="http://www.w3.org/2000/svg" xmlns:xlink="http://www.w3.org/1999/xlink" x="0px" y="0px"
	 viewBox="0 0 250 160" style="enable-background:new 0 0 250 160;" xml:space="preserve">
<style type="text/css">
	.st0{fill:#FFECCE;}
	.st1{fill:#FFDEAA;}
	.st2{fill:none;stroke:#FFC468;stroke-miterlimit:10;}
	.st3{clip-path:url(#SVGID_2_);}
	.st4{fill:#FFC468;}
	.st5{fill:none;stroke:#FFE4AB;stroke-miterlimit:10;}
	.st6{fill:#CDD5D7;}
	.st7{fill:#0450CF;}
	.st8{fill:#EAF4FE;}
	.st9{fill:#9AC7F7;}
	.st10{fill:#69AEEB;}
	.st11{fill:#4E99FF;}
	.st12{fill:#FFFFFF;}
	.st13{fill:#FD2227;}
	.st14{fill:#12B886;}
	.st15{clip-path:url(#SVGID_4_);}
	.st16{fill:#F7B68B;}
	.st17{fill:#202954;}
	.st18{fill:#1C234A;}
	.st19{fill:#EC9568;}
	.st20{fill:#31336D;}
</style>
<g>
	<path class="st0" d="M208.3,80.2C165.7,48.9,120.4-28.2,74.4,23.3c-22.7,23.5-42.3,67.9-49.6,99.2c-3.4,15-4.3,27.2-2.2,37.3H238
		c7-15.4,9.4-28.9,7.8-38.6C243.1,103.4,228.9,97.5,208.3,80.2z"/>
	<g>
		<g>
			<g>
				<g>
					<path class="st1" d="M92.9,73.6c0,0-5.4,0.7-20.1,11.1"/>
					<g>
						<path class="st1" d="M84,81.6c0.8-0.3,1.6-0.7,2.3-1c0.4-0.2,0.7-0.4,1-0.6c0.3-0.2,0.6-0.3,0.9-0.5c0.6-0.3,1.1-0.7,1.6-1.1
							c0.5-0.3,0.9-0.7,1.2-1c0.4-0.4,0.7-0.7,0.9-1c0.1-0.2,0.2-0.3,0.3-0.5c0.1-0.2,0.2-0.3,0.3-0.5c0.1-0.2,0.1-0.3,0.2-0.5
							c0-0.1,0-0.2,0.1-0.2c0-0.1,0-0.1,0-0.2c0-0.3,0.1-0.6,0-0.9c0-0.3-0.1-0.6-0.4-0.8c-0.1-0.1-0.2-0.2-0.4-0.3
							c-0.1-0.1-0.3-0.2-0.5-0.3c-0.4-0.2-0.8-0.3-1.3-0.3c-0.2,0-0.5-0.1-0.8-0.1c-0.3,0-0.5,0-0.8,0c-0.6,0.1-1.2,0.2-1.9,0.3
							c-0.6,0.2-1.3,0.4-2,0.7c-0.4,0.2-0.7,0.3-1.1,0.5c-0.4,0.2-0.7,0.4-1.1,0.6c-0.7,0.5-1.5,1-2.2,1.5c-0.6,0.5-1.3,1.1-2,1.9
							c-0.4,0.4-0.7,0.8-1.1,1.2c-0.4,0.4-0.7,0.8-1.1,1.3c-1.4,1.7-2.6,3.6-3.4,4.9c1.5-0.3,3.5-0.7,5.5-1.3
							c0.3-0.1,0.5-0.2,0.7-0.2c0.3-0.1,0.5-0.1,0.8-0.2c0.5-0.1,1-0.3,1.5-0.5C82.3,82.3,83.2,81.9,84,81.6z"/>
					</g>
				</g>
				<g>
					<path class="st1" d="M86.5,88.8c0,0-17.2,0.7-17.9,0.8"/>
					<g>
						<path class="st1" d="M77.5,92.7c5.8,0.8,9.2-1.6,9-3.9c-0.1-2.3-3.8-4.4-9.3-3.1c-1.2,0.2-2.8,0.9-4.4,1.6
							c-1.6,0.7-3.1,1.6-4.1,2.3c1.2,0.6,2.7,1.3,4.3,1.9C74.5,92.1,76.1,92.5,77.5,92.7z"/>
					</g>
				</g>
				<g>
					<line class="st1" x1="72.4" y1="74.1" x2="67" y2="89.5"/>
					<g>
						<path class="st1" d="M72.9,83.2c2.7-4.6,1.6-8.4-0.5-9c-2.1-0.8-5.4,1.6-6,6.8C66,83,66.4,87.2,67,89.5
							C68.9,88.1,71.7,85.4,72.9,83.2z"/>
					</g>
				</g>
				<g>
					<path class="st1" d="M62.7,73.2c0,0-5.6,11.2-0.5,21.7"/>
					<g>
						<path class="st1" d="M63.5,84.4c0.2-0.8,0.3-1.5,0.4-2.2c0.1-0.7,0.2-1.4,0.3-2c0.2-1.2,0.2-2.4,0.2-3.3
							c-0.1-1.9-0.7-3.3-1.7-3.7c-1-0.5-2.6,0.1-4,2c-0.7,0.9-1.3,2.2-1.7,3.7c-0.4,1.5-0.6,3.3-0.4,5.3c0.1,0.8,0.2,1.8,0.6,2.9
							c0.3,1,0.7,2.1,1.3,3.2c0.5,1,1.2,2,1.8,2.8c0.2,0.2,0.3,0.4,0.5,0.6c0.2,0.2,0.3,0.4,0.5,0.5c0.3,0.3,0.7,0.6,0.9,0.8
							c0-0.4,0-0.8,0-1.2c0-0.4,0-0.9,0.1-1.3c0.1-0.9,0.2-1.9,0.3-2.8c0.1-0.9,0.3-1.9,0.5-2.7C63.2,86,63.4,85.2,63.5,84.4z"/>
					</g>
				</g>
				<g>
					<path class="st1" d="M81.2,97.6c0,0-10.1-2.2-19-0.4"/>
					<g>
						<path class="st1" d="M71.4,100c0.7,0.1,1.4,0.3,2,0.3c0.6,0.1,1.3,0.1,1.8,0.1c1.1,0,2.2-0.1,3-0.4c1.7-0.5,2.8-1.4,3-2.5
							c0.3-1.1-0.5-2.4-2.2-3.4c-0.8-0.5-1.9-0.9-3.2-1.1c-0.6-0.1-1.3-0.2-2-0.2c-0.7,0-1.5,0-2.3,0.2c-1.3,0.1-3.2,0.7-4.9,1.5
							c-0.4,0.2-0.9,0.4-1.3,0.6c-0.4,0.2-0.8,0.5-1.2,0.7c-0.4,0.2-0.7,0.5-1.1,0.7c-0.3,0.2-0.6,0.5-0.9,0.7
							c0.3,0.1,0.7,0.2,1,0.3c0.4,0.1,0.7,0.2,1.1,0.4c0.8,0.3,1.6,0.5,2.4,0.8c0.2,0.1,0.4,0.1,0.6,0.2c0.2,0.1,0.4,0.1,0.6,0.2
							c0.4,0.1,0.8,0.2,1.2,0.4c0.4,0.1,0.8,0.2,1.2,0.3C70.6,99.9,71,100,71.4,100z"/>
					</g>
				</g>
				<g>
					<path class="st1" d="M80.4,105.5c0,0-5.9-4.5-21.7,2.5"/>
					<g>
						<path class="st1" d="M69.8,108c0.4,0,0.8,0,1.2,0c0.1,0,0.2,0,0.3,0c0.1,0,0.2,0,0.3,0c0.2,0,0.4,0,0.5,0
							c0.7-0.1,1.3-0.1,1.9-0.1c1.2-0.1,2.2-0.2,3-0.4c0.8-0.2,1.5-0.4,2.1-0.7c0.6-0.3,1-0.7,1.3-1.1c0.4-0.4,0.4-1.1,0-1.9
							c-0.4-0.7-1.2-1.5-2.3-2.1c-0.3-0.1-0.6-0.3-0.9-0.4c-0.3-0.1-0.7-0.2-1-0.3c-0.2,0-0.4-0.1-0.6-0.1c-0.2,0-0.4-0.1-0.6-0.1
							c-0.2,0-0.4-0.1-0.6-0.1c-0.2,0-0.4,0-0.6,0c-0.4,0-0.8,0-1.3,0c-0.1,0-0.2,0-0.3,0c-0.1,0-0.2,0-0.3,0
							c-0.2,0-0.4,0.1-0.7,0.1c-0.2,0-0.5,0.1-0.7,0.1c-0.1,0-0.2,0-0.3,0.1c-0.1,0-0.2,0.1-0.3,0.1c-0.5,0.1-0.9,0.3-1.4,0.4
							c-0.4,0.1-0.8,0.3-1.2,0.5c-0.4,0.2-0.9,0.4-1.4,0.6c-0.5,0.3-0.9,0.5-1.4,0.8c-0.5,0.3-0.9,0.6-1.4,0.9
							c-0.4,0.3-0.9,0.7-1.3,1c-0.2,0.2-0.4,0.3-0.6,0.5c-0.2,0.2-0.4,0.4-0.6,0.5c-0.7,0.7-1.4,1.4-1.9,1.9c0.8,0,1.6,0.1,2.6,0.1
							c0.2,0,0.5,0,0.7,0c0.2,0,0.5,0,0.7,0c0.5,0,1,0,1.5,0c0.2,0,0.5,0,0.7,0c0.2,0,0.5,0,0.7,0c0.5,0,1,0,1.4,0
							c0.5,0,0.9,0,1.4,0C69,108,69.4,108,69.8,108z"/>
					</g>
				</g>
				<g>
					<path class="st1" d="M51.3,83.5c2.2,3.8,5.7,23.4,5.7,23.4"/>
					<g>
						<path class="st1" d="M58.1,94.7c-0.3-4-1.4-7-2.8-9c-0.7-1-1.4-1.7-2.2-2.1c-0.2-0.1-0.4-0.2-0.5-0.2
							c-0.2-0.1-0.3-0.1-0.5-0.1c-0.3,0-0.6,0.1-0.8,0.2c-0.2,0.1-0.5,0.3-0.7,0.6c-0.1,0.1-0.2,0.2-0.3,0.4
							c-0.1,0.1-0.2,0.3-0.2,0.5c-0.3,0.7-0.5,1.5-0.5,2.6c-0.1,2.1,0.3,5.1,1.7,8.6c0.5,1.5,1.5,3.5,2.6,5.5c1.1,2,2.2,4,3.2,5.3
							C57.8,103.8,58.5,98.5,58.1,94.7z"/>
					</g>
				</g>
				<g>
					<path class="st1" d="M43.8,99.3c0,0,10.1,8.8,14.4,19.6"/>
					<g>
						<path class="st1" d="M55,106.5c-0.1-0.2-0.3-0.5-0.4-0.7c-0.1-0.2-0.3-0.4-0.4-0.6c-0.3-0.4-0.5-0.8-0.8-1.2
							c-0.6-0.7-1.1-1.4-1.7-2c-1.2-1.2-2.3-2-3.4-2.6c-2.1-1.1-3.8-1.1-4.5-0.2c-0.8,0.8-0.6,2.5,0.3,4.5c0.5,1,1.2,2.1,2.1,3.3
							c0.5,0.6,0.9,1.2,1.5,1.8c0.5,0.6,1.2,1.2,1.8,1.9c1.1,1.1,2.7,2.5,4.3,4c0.4,0.4,0.8,0.7,1.2,1.1c0.4,0.4,0.8,0.8,1.2,1.1
							c0.4,0.4,0.7,0.7,1.1,1.1c0.3,0.3,0.7,0.6,1,0.9c0-0.4,0-0.8,0-1.3c0-0.5,0-1-0.1-1.5c-0.1-0.5-0.1-1.1-0.2-1.6
							c0-0.3-0.1-0.6-0.2-0.8l-0.2-0.8c-0.1-0.3-0.1-0.6-0.2-0.9c-0.1-0.3-0.2-0.6-0.3-0.8c-0.2-0.6-0.4-1.1-0.6-1.6
							c-0.2-0.5-0.4-1-0.7-1.5C55.6,107.4,55.3,107,55,106.5z"/>
					</g>
				</g>
				<g>
					<path class="st1" d="M80.6,112.2c0,0-10.5-2.5-21,3.6"/>
					<g>
						<path class="st1" d="M70.1,115.6c0.4,0,0.8,0,1.1,0c0.4,0,0.7,0,1.1,0c0.2,0,0.3,0,0.5,0c0.2,0,0.3,0,0.5,0
							c0.3,0,0.6-0.1,0.9-0.1c1.2-0.1,2.3-0.3,3.2-0.6c1.8-0.6,2.9-1.5,3.1-2.6c0.1-0.5,0-1.2-0.5-1.8c-0.5-0.6-1.2-1.2-2.3-1.6
							c-1-0.4-2.3-0.7-3.9-0.8c-0.4,0-0.8,0-1.2,0c-0.2,0-0.4,0-0.6,0c-0.2,0-0.4,0.1-0.6,0.1c-0.4,0.1-0.9,0.1-1.3,0.2
							c-0.4,0.1-0.9,0.2-1.3,0.4c-0.4,0.1-0.8,0.3-1.2,0.4c-0.4,0.2-0.9,0.4-1.3,0.6c-0.5,0.3-0.9,0.5-1.4,0.8
							c-0.2,0.1-0.5,0.3-0.7,0.5c-0.2,0.2-0.4,0.3-0.7,0.5c-0.2,0.2-0.4,0.3-0.6,0.5c-0.2,0.2-0.4,0.4-0.6,0.5
							c-0.4,0.4-0.8,0.7-1.1,1.1c-0.7,0.7-1.2,1.5-1.7,2c0.8,0,1.6-0.1,2.5-0.1c0.5,0,0.9,0,1.4,0c0.2,0,0.5,0,0.7,0
							c0.2,0,0.5,0,0.7,0c0.5,0,0.9,0,1.4,0c0.5,0,0.9,0,1.4,0c0.4,0,0.9,0,1.3,0C69.3,115.6,69.7,115.6,70.1,115.6z"/>
					</g>
				</g>
				<path class="st2" d="M90.7,73.2c0,0-23.4,11.6-30,26.5c-5.6,12.6-1,16.6,0.2,28.1c0.1,1.5,1.5,9.9-5.1,20.6"/>
				<path class="st2" d="M71.6,74.2c0,0-2.6,12.8-5.7,17.6"/>
				<path class="st2" d="M86.2,88.8c0,0-13.8-1.9-19.7,2"/>
				<path class="st2" d="M62,73.4c0,0-5,12.7,0.9,22.4"/>
				<path class="st2" d="M80.8,97.5c0,0-8.6-5.4-18.8-0.2"/>
				<path class="st2" d="M51.4,83.9c0,0,5.2,17.2,6.7,29.2"/>
				<path class="st2" d="M80.4,105c-4.1-3.9-20.9-0.7-22.3,4.5"/>
				<path class="st2" d="M44.8,100c0,0,14.1,13.9,16.1,27.5"/>
				<path class="st2" d="M79.5,111.2c0,0-13.9-3-20.7,5.7"/>
			</g>
		</g>
		<g>
			<g>
				<path class="st1" d="M15.1,112.6l-3.5,2.7c-3-1.9-5.7-4-8-6.2c1.7-2.6,3.8-5,6.3-7.1c11.9-10.4,35-1,36.4,19.7
					c-6.4,2.3-15.5,1.9-25.1-1.6c-2.5-0.9-4.8-2-7.1-3.2L15.1,112.6z"/>
				<g>
					<path class="st2" d="M3.7,109.1c0,0,24.4-9.6,41.3,10.8c0.5,0.6,5.2,6.8,6.5,15.4"/>
					<line class="st2" x1="8.3" y1="103.6" x2="12.1" y2="107.3"/>
					<line class="st2" x1="12.4" y1="100.4" x2="18" y2="106.9"/>
					<line class="st2" x1="17.2" y1="98.4" x2="23.8" y2="107.4"/>
					<line class="st2" x1="23.6" y1="97.9" x2="29.1" y2="108.8"/>
					<line class="st2" x1="29.3" y1="99.2" x2="33.5" y2="110.5"/>
					<line class="st2" x1="35.5" y1="102.3" x2="38.7" y2="113.9"/>
					<line class="st2" x1="40.8" y1="107.3" x2="43" y2="117.8"/>
					<line class="st2" x1="7.9" y1="112.7" x2="11.9" y2="107.2"/>
					<line class="st2" x1="18" y1="106.9" x2="11.2" y2="115.1"/>
					<line class="st2" x1="23.8" y1="107.4" x2="16.4" y2="117.9"/>
					<line class="st2" x1="29.1" y1="108.8" x2="21.9" y2="120.3"/>
					<line class="st2" x1="33.5" y1="110.5" x2="26.9" y2="121.8"/>
					<line class="st2" x1="38.7" y1="113.9" x2="33" y2="123"/>
					<line class="st2" x1="43" y1="117.8" x2="39" y2="123.1"/>
				</g>
			</g>
			<g>
				<path class="st1" d="M60.7,41.4c-2.4,6.3-7.1,8.7-13.8,8.5c-5.1-5.1-5.9-11.2-1.8-17.4c4.1-6.1,11.7-11.1,18.2-12.7
					C63.6,26.3,63,35.1,60.7,41.4z"/>
				<path class="st2" d="M61.3,22.7c-5.7,7.9-11.9,20.1-15.8,30c-1.3,3.3-13.2,40.9,5,63.6"/>
				<path class="st2" d="M57,29.3c-0.3-1.7-0.5-3.7-0.5-5.4"/>
				<path class="st2" d="M54.3,33.9c-0.6-2.1-1.3-4.1-1.6-6.1"/>
				<path class="st2" d="M51.7,38.8c-1.4-3.3-2.3-6.9-2.8-10.1"/>
				<path class="st2" d="M49.6,42.7c-1.7-3.1-2.9-6.2-3.8-9.2"/>
				<path class="st2" d="M48.1,46.7c-1.1-1.6-2.1-3.2-3-4.9"/>
				<path class="st2" d="M57.4,28.4c1.7-0.5,3.3-1,5-1.5"/>
				<path class="st2" d="M54.8,33.4c2.6-0.6,4.8-1.3,7.4-2"/>
				<path class="st2" d="M52.2,38c3.2-0.6,6.1-1.4,9.2-2.1"/>
				<path class="st2" d="M49.9,42.3c3.2-0.5,6.5-1.1,9.7-1.6"/>
				<path class="st2" d="M48.2,46.3c2.8-0.3,5.6-0.7,8.4-1"/>
			</g>
			<g>
				<path class="st1" d="M44.8,94.5c0,0,8.5-18.3,0.7-29c-7.8-10.8-23.2-15.2-23.2-15.2s-9.1,21.5,0.7,32.2
					C32.9,93.1,42.3,92,44.8,94.5z"/>
				<path class="st2" d="M22.3,50.2c0,0,32,41.5,29,88.9"/>
				<g>
					<defs>
						<path id="SVGID_1_" d="M44.8,94.5c0,0,8.5-18.3,0.7-29c-7.8-10.8-23.2-15.2-23.2-15.2s-9.1,21.5,0.7,32.2
							C32.9,93.1,42.3,92,44.8,94.5z"/>
					</defs>
					<clipPath id="SVGID_2_">
						<use xlink:href="#SVGID_1_"  style="overflow:visible;"/>
					</clipPath>
					<g class="st3">
						<path class="st2" d="M28.1,50.5c-0.7,1.7-1.5,3.1-2.5,4.1"/>
						<path class="st2" d="M31.3,52.1c-0.9,2.5-2.1,5-3.7,6.4"/>
						<path class="st2" d="M34.5,54c-0.9,3-2.4,6.5-4.5,8"/>
						<path class="st2" d="M37.5,56.4c-1,3.3-2.7,7.5-5.3,9.3"/>
						<path class="st2" d="M40.5,58.8c-1,3.4-3.1,8.7-6.3,10.7"/>
						<path class="st2" d="M43.4,61.7c-1.1,3.4-3.4,9.5-7.1,11.6"/>
						<path class="st2" d="M46.1,64.9c-1.2,3.3-4,10.2-8.1,12.4"/>
						<path class="st2" d="M48.4,69.5C47,73.1,44,79.2,40,81.1"/>
						<path class="st2" d="M49.6,76.1c-1.9,3.5-4.6,7.7-8,9.2"/>
						<path class="st2" d="M49.3,83.8c-1.8,2.4-3.9,4.5-6.2,5.5"/>
					</g>
					<g class="st3">
						<path class="st2" d="M20.1,53c1.7,0.3,3.5,0.8,5.1,1.5"/>
						<path class="st2" d="M19.2,56.5c2.7,0.1,5.9,0.5,8.7,1.7"/>
						<path class="st2" d="M18.3,60.8c3.4-0.5,8-0.7,11.9,1.2"/>
						<path class="st2" d="M17.5,65.7c3.3-1.2,9.6-2.9,14.7-0.1"/>
						<path class="st2" d="M16.7,71.5c0,0,10.1-6.5,17.7-2"/>
						<path class="st2" d="M18.1,76.3c0,0,10.4-7.8,18.2-2.9"/>
						<path class="st2" d="M19.5,81.1c0,0,10.5-9.1,18.7-3.7"/>
						<path class="st2" d="M23,84.1c3.5-2.7,10.7-7.2,16.9-3"/>
						<path class="st2" d="M25.8,87.5c3.9-2.9,10.2-6.3,15.8-2.3"/>
						<path class="st2" d="M29.6,90.1c3.8-2.6,8.9-4.5,13.6-1"/>
					</g>
				</g>
			</g>
		</g>
		<polygon class="st1" points="43,159.6 64.2,159.6 67.7,137.7 39.4,137.7 		"/>
		<polygon class="st4" points="53.3,159.6 61.6,159.6 65.7,137.7 55.2,137.7 		"/>
		<line class="st5" x1="66.2" y1="142.5" x2="45" y2="142.5"/>
	</g>
	<g>
		<path class="st6" d="M73.2,156.2c-2.9,0-5.2-2.3-5.2-5.2V54.8c0-2.9,2.3-5.2,5.2-5.2h140.6c2.9,0,5.2,2.3,5.2,5.2V151
			c0,2.9-2.3,5.2-5.2,5.2H73.2z"/>
		<path class="st7" d="M218.4,151c0,2.6-2.1,4.7-4.7,4.7H73.2c-2.6,0-4.7-2.1-4.7-4.7V54.8c0-2.6,2.1-4.7,4.7-4.7h140.6
			c2.6,0,4.7,2.1,4.7,4.7V151z"/>
		<rect x="75.8" y="56.8" class="st8" width="135.3" height="86.3"/>
		<rect x="42.7" y="150.4" class="st9" width="201.5" height="5.9"/>
		<g>
			<path class="st10" d="M43,156.3c2.4,2.5,6.8,3.5,9.8,3.5h181.3c3,0,7.4-1,9.8-3.5H43z"/>
		</g>
		<g>
			<path class="st10" d="M129.8,150.4v0.6c0,1.2,0.9,2.1,2.1,2.1H155c1.2,0,2.1-0.9,2.1-2.1v-0.6H129.8z"/>
		</g>
	</g>
	<g>
		<g>
			<g>
				<path class="st11" d="M204.7,73.1c0,4.7-3.8,8.5-8.5,8.5c-4.7,0-8.5-3.8-8.5-8.5c0-4.7,3.8-8.5,8.5-8.5
					C200.9,64.7,204.7,68.5,204.7,73.1z"/>
			</g>
			<g>
				<g>
					<path class="st12" d="M196.2,76c-1.9,0-3.5-1.6-3.5-3.5v-0.6c0-0.2,0.2-0.4,0.4-0.4c0.2,0,0.4,0.2,0.4,0.4v0.6
						c0,1.4,1.2,2.6,2.6,2.6c1.4,0,2.6-1.2,2.6-2.6v-0.6c0-0.2,0.2-0.4,0.4-0.4c0.2,0,0.4,0.2,0.4,0.4v0.6
						C199.7,74.4,198.2,76,196.2,76z"/>
				</g>
				<path class="st12" d="M196.2,74.3c-1,0-1.8-0.8-1.8-1.8v-2.9c0-1,0.8-1.8,1.8-1.8c1,0,1.8,0.8,1.8,1.8v2.9
					C198,73.5,197.2,74.3,196.2,74.3z"/>
				<g>
					<path class="st12" d="M196.2,77.9c-0.2,0-0.4-0.2-0.4-0.4v-1.8c0-0.2,0.2-0.4,0.4-0.4c0.2,0,0.4,0.2,0.4,0.4v1.8
						C196.7,77.7,196.5,77.9,196.2,77.9z"/>
				</g>
				<g>
					<path class="st12" d="M198.2,77.9h-4c-0.2,0-0.4-0.2-0.4-0.4c0-0.2,0.2-0.4,0.4-0.4h4c0.2,0,0.4,0.2,0.4,0.4
						C198.7,77.7,198.5,77.9,198.2,77.9z"/>
				</g>
			</g>
		</g>
		<g>
			<g>
				<path class="st13" d="M204.7,94.2c0,4.7-3.8,8.5-8.5,8.5c-4.7,0-8.5-3.8-8.5-8.5c0-4.7,3.8-8.5,8.5-8.5
					C200.9,85.7,204.7,89.5,204.7,94.2z"/>
			</g>
		</g>
		<g>
			<g>
				
					<ellipse transform="matrix(0.1707 -0.9853 0.9853 0.1707 49.1959 288.9496)" class="st14" cx="196.2" cy="115.2" rx="8.5" ry="8.5"/>
			</g>
			<path class="st12" d="M197.9,118.9c-2.9,0-5.3-2.4-5.3-5.3v-1.3c0-0.4,0.3-0.7,0.7-0.7h1.3c0.2,0,0.2,0.1,0.2,0.1
				c0.1,0.1,0.1,0.2,0.1,0.5v1.5c0,0.2,0,0.4-0.1,0.5c0,0-0.1,0.1-0.2,0.1l-0.4,0l0,0.4c0.2,1.4,1.2,2.4,2.6,2.6l0.4,0l0-0.4
				c0-0.2,0.1-0.2,0.1-0.2c0.1-0.1,0.2-0.1,0.4-0.1h1.7c0.2,0,0.3,0,0.4,0.1c0,0,0.1,0.1,0.1,0.2v1.3c0,0.4-0.3,0.7-0.7,0.7H197.9z"
				/>
		</g>
		<g>
			<polygon class="st12" points="198.5,93.2 198.5,94.8 200.3,96.3 200.3,91.6 			"/>
			<path class="st12" d="M198,96.3c0,0.3-0.2,0.5-0.5,0.5h-4.7c-0.3,0-0.5-0.2-0.5-0.5v-4.7c0-0.3,0.2-0.5,0.5-0.5h4.7
				c0.3,0,0.5,0.2,0.5,0.5V96.3z"/>
		</g>
	</g>
	<g>
		<defs>
			<rect id="SVGID_3_" x="59.3" y="20.8" width="134.2" height="123.1"/>
		</defs>
		<clipPath id="SVGID_4_">
			<use xlink:href="#SVGID_3_"  style="overflow:visible;"/>
		</clipPath>
		<g class="st15">
			<g>
				<path class="st16" d="M160.9,85.4c0,0,5.3-7.6,5.8-8.5c0.6-0.9,0.3-1.6,0.7-3.8c0.4-2.2,0.5-2.6,0.9-4.3
					c0.4-1.7,0.5-1.9,0.5-1.9s0.9,0.4,0.9,1.1c0,0.6-0.3,2.1-0.3,2.7c0,0.5,0.3-1.2,1.4-3.6c1.1-2.4,2.6-4.6,3.2-5.5
					c0.4-0.6,0.5-0.7,0.5-0.6c0.3,0.1,0.6,0.2,0.5,0.6c0,0.3-0.5,1.2-0.4,1.2c0.3-0.1,1.3-1.4,1.5-1.7c0.2-0.2,0.4-0.6,0.5-0.8
					c0.3-0.4,0.8,0,0.7,0.9c0,0,0.3,0.3,0.3,0.6c0,0.1,0,0.2,0,0.4c0,0.1-0.1,0.3-0.1,0.5c-0.1,0.6-0.2,1.1-0.4,1.7
					c-0.1,0.2-0.9,2-0.8,2c0,0,0.9-1.3,1-1.3c0.2,0.2,0.4,0.5,0.3,0.8c-0.2,0.5-0.5,1.1-1.5,3c-1.1,2-1.1,2.5-2.2,5.3
					c-0.8,2.1-1.9,2.5-2.9,4.2c-3,5.6-4.8,10.7-6.4,11.8C163.3,91.1,160.9,85.4,160.9,85.4z"/>
			</g>
			<path class="st17" d="M102.5,74.1c0,0-11.1,2.5-12.6-2.1c-1.5-4.6,3.3-7.9-0.7-10.9c-4.1-3-9.5-4.7-1.5-9.4
				c8-4.7,0.4-11.6,6.5-13.5c6.1-1.9,8.1,1.8,14,0.5c5.8-1.3,11.9-7.6,17.1-1.2c5.2,6.5,6.6,13.5,3.1,14.9c-3.5,1.4,1.7,3.4,3.4,5.7
				c1.6,2.3,1.7,12.3-14.4,10.5C101.1,66.8,109.2,72.2,102.5,74.1z"/>
			<path class="st18" d="M113.6,77c1.2-2.2,4-2.6,7.2-0.8c16.4,8.9,34.3,29.5,34.3,29.5s0.3,4.6-3.5,5.3c-4.5,0.9-17.1-3-36.9-19.6
				C109,86.5,111.6,80.6,113.6,77z"/>
			<path class="st16" d="M92.8,94.2c0,0,14,12.6,24.3,11.1c10.3-1.5,14-5.2,13.9-9.5c-0.1-4.3-3-11-5.4-12.9c-6-4.8-6.5-4.3-9.4-5.8
				c-3.1-1.6-3.8-6.8-4.2-11.3c-0.5-4.5,2.7-6-1.3-6.6c-4-0.6-3.3-3-6.4-1.3c-3,1.8-5.4,1.3-4.2,4.4c2.2,5.7,5.7,13.4,3.9,18.3
				C102,86,99.1,88.5,92.8,94.2z"/>
			<path class="st13" d="M136.9,108c-3.4-7.2-6.7-14.5-10-21.7c-0.7-1.6-1.6-3-2.4-4.2c3.7,18.2-6.3,15-20.4,6.5
				c-2.5,4.7-11,10.8-10.8,11.6c1.9,8.3,4.6,16.4,6.6,24.6c0.8,3.5,3.4,6.3,6,8.1c0,0.7,0.1,1.4,0.3,2.1l0.7,4.1
				c0.8,3.3-2,16.1,0,15.7l29.4-6.1c2-0.4,2.8-7.8,2-11.1l-1.4-16.9c-0.1-0.3-0.2-0.6-0.2-0.8C137.9,116.4,138.6,111.7,136.9,108z"
				/>
			<path class="st19" d="M111.9,65.8c-0.5-4.5,2.7-6-1.3-6.6c-4-0.6-3.3-3-6.4-1.3c-1.5,0.9-2.8,1.2-3.6,1.7
				c-0.3,0.4-0.6,0.7-0.9,1.1c-0.1,0.4,0,0.9,0.3,1.7c1.1,2.9,2.6,6.4,3.5,9.8c2.7,1.2,6.1,1.5,9.5,0.6
				C112.5,70.6,112.2,68.1,111.9,65.8z"/>
			<path class="st20" d="M103.6,81.6c0,0-14.9,6.2-14.1,12.6c1.2,9.4,2,15.2,4.5,19.8c3,5.4,5.5,12.9,9.6,19.8
				c5,8.4,0.6,19.1,1.5,17.1c0.2-0.4,13.5-5.7,17.4-6.7c1.6-0.4,0.2-34.2-8.2-50.4C111.3,87.8,103.6,81.6,103.6,81.6z"/>
			<path class="st20" d="M132.9,88.9c-1.2-2.1-7.3-8.1-10.4-10.1c-2.5-1.6-5.6-1.7-6.4-1.8c-0.7-0.1,9.9,3.4,15.6,25.2
				c1,3.7,1,13.2,1.3,19.4c0.4,6.1,2.1,17.2,2.1,17.2s6.5-0.4,7,0.4c0.5,0.8-3.7-7.4-4-16.1C137.5,102.2,138,98.4,132.9,88.9z"/>
			<path class="st18" d="M95.3,89.7c-2.5-0.2-6-0.3-5.7,3.9c1.1,18.5,6,54.7,6,54.7s4.2,2.4,6.4-1.1c2.7-4.4,7.2-17.6,4.7-47.4
				C105.9,91.1,99.5,89.9,95.3,89.7z"/>
			<g>
				<path class="st16" d="M88.6,171.7c0,0-3.4,10-3.9,10.9c-0.6,0.8-1.3,0.9-3.2,2.1c-1.9,1.2-2.2,1.5-3.6,2.6
					c-1.4,1-1.6,1.2-1.6,1.2s0.7,0.7,1.4,0.5c0.6-0.3,1.8-1.1,2.3-1.3c0.5-0.2-1,0.8-2.8,2.7c-1.8,2-3.2,4.1-3.8,5.1
					c-0.4,0.6-0.4,0.7-0.4,0.7c0.2,0.2,0.4,0.4,0.7,0.3c0.2-0.1,0.9-0.9,0.9-0.8c0,0.3-0.8,1.8-1,2c-0.2,0.2-0.4,0.6-0.5,0.8
					c-0.2,0.5,0.3,0.7,1.1,0.3c0,0,0.4,0.2,0.7,0c0.1-0.1,0.2-0.1,0.3-0.2c0.1-0.1,0.3-0.2,0.4-0.3c0.5-0.3,1-0.6,1.4-1
					c0.2-0.1,1.5-1.6,1.6-1.5c0,0-0.9,1.3-0.8,1.4c0.2,0.1,0.7,0.2,0.9,0c0.3-0.4,0.8-0.9,2.2-2.6c1.5-1.8,1.6-2.3,4-4
					c2.1-1.5,2.4-2.4,2.8-4.3c1.4-6.5,7.9-16.1,8.4-18C96.4,166.4,88.6,171.7,88.6,171.7z"/>
			</g>
			<path class="st18" d="M95.9,174.3c-4.3,0.7-6.1-1.2-9.8-2.8c1.7-9.4,4.8-23.6,7.4-33.3c0.9-3.6,8.9-8.8,11.1-7.7
				c3.8,1.8-0.5,18.5-2.5,25.8C100.2,163,99,170.2,95.9,174.3z"/>
			<path class="st18" d="M164,78.2c-5.4,6.8-14.3,17.8-19.4,25.5c-1.9,2.9,2.2,6.5,4.1,7.1c4.8,1.4,8.1-4.9,12-10.8
				c3.5-5.3,7.7-10.5,9-15.5C168.5,80.6,166.6,80.3,164,78.2z"/>
			<path class="st16" d="M100.9,43.3c-0.3,0-0.6,0.1-0.9,0.1c0.7,3.6-0.5,8.5-3.4,13.2c-0.7,1.1-1.5,2.2-2.3,3.1l1.2,3.1
				c1.8,4.6,7.1,6.9,12,5c4.8-1.9,7.3-7.1,5.6-11.7l-2.7-7C107.3,48.4,103.9,46.4,100.9,43.3z"/>
		</g>
	</g>
</g>
</svg>
