<svg id="SvgjsSvg1001" width="288" height="288" xmlns="http://www.w3.org/2000/svg" version="1.1" xmlns:xlink="http://www.w3.org/1999/xlink" xmlns:svgjs="http://svgjs.com/svgjs"><defs id="SvgjsDefs1002"></defs><g id="SvgjsG1008"><svg xmlns="http://www.w3.org/2000/svg" viewBox="0 0 32 32" width="288" height="288"><path d="M 9 4 C 7.355469 4 6 5.355469 6 7 L 6 25 C 6 26.644531 7.355469 28 9 28 L 26 28 L 26 4 Z M 9 6 L 24 6 L 24 22 L 9 22 C 8.648438 22 8.316406 22.074219 8 22.1875 L 8 7 C 8 6.433594 8.433594 6 9 6 Z M 11 9 L 11 11 L 22 11 L 22 9 Z M 9 24 L 24 24 L 24 26 L 9 26 C 8.433594 26 8 25.566406 8 25 C 8 24.433594 8.433594 24 9 24 Z" fill="#ff7f50" class="color000 svgShape"></path></svg></g></svg>